<svg width="301" height="126" viewBox="0 0 301 126" fill="none" xmlns="http://www.w3.org/2000/svg">
<g clip-path="url(#clip0_4_82)">
<path d="M300.997 92.1025H284.032L300.997 112.858V126H219.936V125.755H207.168L197.604 98.7133L187.053 125.741H172.148V126H157.303V92.1025H148.511V93.7308L131.928 101.003L148.497 108.713V125.974L126.44 115.594V124.512H114.031V125.951L79.1405 109.544C77.396 113.961 74.355 117.752 70.4133 120.426C66.4716 123.1 61.8117 124.532 57.0402 124.535C53.923 124.545 50.8347 123.94 47.9544 122.755C45.074 121.57 42.4588 119.828 40.2602 117.631C38.9804 116.372 37.8531 114.968 36.9014 113.448V125.971L0 108.621V93.374L34.2253 77.172L0 61.0621V45.8324L36.9014 28.3301L36.9303 40.8843C39.0608 37.4947 42.0227 34.699 45.5377 32.7596C49.0528 30.8203 53.0058 29.8009 57.0257 29.7972H57.0402C61.0599 29.8012 65.0128 30.8194 68.5289 32.7565C72.045 34.6936 75.0093 37.4862 77.1442 40.8728V28.3272L114.034 45.8439V46.0223H154.795V60.7773H114.04V61.0649L77.15 78.4148V65.8577C75.0215 69.2561 72.0581 72.0599 68.539 74.005C65.0198 75.9502 61.0607 76.9728 57.0344 76.9764C53.0065 76.9772 49.0447 75.9583 45.5224 74.0155C42.0001 72.0728 39.0332 69.2703 36.9014 65.872V78.4148V88.449C39.2329 84.7345 42.558 81.7386 46.5047 79.7966C50.4513 77.8547 54.8636 77.0432 59.2476 77.4532C63.6317 77.8631 67.8145 79.4783 71.3278 82.1179C74.8411 84.7575 77.5463 88.3173 79.1405 92.3988L112.075 76.8067V62.2272H154.795V76.9764L183.387 77.336V92.091H172.148V120.071L189.908 77.336H205.438L219.936 113.195V77.3475H234.282C235.885 74.5705 237.711 71.3955 239.759 67.8225C241.1 65.4846 242.371 63.2734 243.572 61.1886C241.822 62.6587 240.025 64.0856 238.214 65.4549C235.084 67.8167 232.37 69.4364 229.92 70.4116C224.732 72.4627 222.834 69.235 222.38 68.1965L222.273 67.9088C221.854 66.5021 222.056 64.845 222.907 62.8083C222.651 62.5978 222.416 62.3626 222.207 62.1063C221.384 61.062 220.866 59.8131 220.708 58.496C219.461 59.5144 218.125 60.6564 216.713 61.9193C215.133 63.3031 213.617 64.5861 212.188 65.757C210.969 66.7902 209.65 67.7008 208.25 68.4755L208.057 68.5733C207.104 69.0343 206.02 69.1513 204.99 68.9042C204.27 68.4324 203.543 67.9577 202.82 67.4658C202.14 66.5538 201.952 65.3571 202.299 64.0654C201.044 64.2608 199.765 64.2511 198.512 64.0367C197.561 63.8738 196.671 63.4609 195.934 62.8407C195.198 62.2206 194.641 61.4157 194.323 60.5097C189.694 63.4066 186.243 65.2276 183.798 66.0677C182.93 66.3553 181.339 66.9048 179.748 66.9048C178.342 66.9048 176.956 66.4675 176.14 65.0263L176.082 64.9198C174.656 62.0804 176.811 58.9505 178.556 56.8505C180.981 54.0172 183.792 51.5345 186.908 49.4744C190.38 47.0867 193.825 45.6166 197.106 45.1161C201.174 44.4918 204.339 46.2467 205.979 50.0699L206.043 50.2425C206.239 50.8009 206.29 51.3992 206.192 51.9825C206.094 52.5657 205.85 53.1149 205.482 53.5796C204.939 54.2794 204.186 54.7892 203.332 55.0352L203.222 55.064C202.835 55.1536 202.436 55.1875 202.039 55.1647C201.772 55.7545 201.564 56.3693 201.42 57.0001C202.098 57.0286 202.776 56.931 203.419 56.7124C204.548 56.4093 205.648 56.0109 206.708 55.5214C207.866 53.5479 209 51.6119 210.096 49.7678C210.594 48.9796 211.034 48.269 211.424 47.6246C211.392 47.4131 211.372 47.1999 211.366 46.986C211.362 46.0464 211.71 45.1388 212.341 44.44C213.559 43.1254 214.447 42.4263 215.304 42.1156L215.492 42.0351C216.307 41.7349 217.201 41.7227 218.023 42.0005C218.665 42.201 219.247 42.5582 219.714 43.0397C220.182 43.5211 220.52 44.1114 220.699 44.7565L220.786 45.0787V45.6886C220.786 46.4729 220.574 47.2429 220.173 47.9181C219.56 48.9163 218.911 49.9778 218.234 51.0825C220.375 49.6441 221.848 48.9825 223.104 48.8875H223.234H223.361C225.866 48.9508 227.597 50.3 227.99 52.4806C228.109 53.1656 228.169 53.8596 228.169 54.5548C229.407 53.0014 230.729 51.5166 232.13 50.1073C235.073 47.025 238.428 44.3583 242.1 42.1818C245.988 39.9206 249.622 39.1324 252.949 39.8343C253.425 39.9447 253.888 40.1038 254.332 40.309C255.405 39.322 256.42 38.273 257.369 37.1675C258.33 35.9766 259.201 34.716 259.973 33.3961C263.06 28.238 265.534 24.2508 267.35 21.5035C269.923 17.5643 272.803 13.8321 275.963 10.3416C279.166 6.78589 282.039 3.98103 284.46 1.99893C285.398 1.2385 286.481 0.673069 287.643 0.336156C288.864 -0.0646952 290.174 -0.117511 291.424 0.183687C293.212 0.658356 294.343 2.0277 294.574 3.96377L294.612 4.27159L294.574 4.57365C294.43 5.72436 293.845 7.5281 290.594 12.341C287.12 17.3931 283.305 22.2045 279.175 26.7421C275.156 31.1465 271.291 35.0416 267.677 38.3326C266.565 39.3869 265.524 40.5132 264.562 41.7042C263.616 42.9798 262.747 44.3092 261.958 45.6857C258.272 51.7672 254.563 57.7998 250.915 63.6684C247.568 69.0384 244.717 73.5972 242.36 77.3446H249.081V111.239H280.607L263.67 90.4973V77.3475H300.991L300.997 92.1025Z" fill="white"/>
<path d="M154.795 29.7862H112.087V44.5412H154.795V29.7862Z" fill="white"/>
<path d="M34.393 44.5498L14.2369 53.3872L34.3814 62.7799V74.4481L2.52563 59.4687V47.415L34.3728 32.3091L34.393 44.5498Z" fill="#034AA6"/>
<path d="M79.6613 44.5498L99.8174 53.3872L79.6757 62.7799V74.4481L111.5 59.4659V47.4122L79.6728 32.2976L79.6613 44.5498Z" fill="#0BA067"/>
<path d="M57.0257 32.2976C51.4036 32.2995 46.0125 34.5219 42.0381 38.4759C38.0636 42.4299 35.8314 47.7918 35.8324 53.3822C35.8334 58.9726 38.0674 64.3337 42.0432 68.2864C46.0189 72.2391 51.4108 74.4596 57.033 74.4596C62.6551 74.4596 68.047 72.2391 72.0227 68.2864C75.9985 64.3337 78.2326 58.9726 78.2335 53.3822C78.2345 47.7918 76.0023 42.4299 72.0279 38.4759C68.0534 34.5219 62.6623 32.2995 57.0402 32.2976H57.0257ZM57.0257 64.342C54.8447 64.342 52.7127 63.6988 50.8994 62.4937C49.086 61.2887 47.6728 59.5759 46.8386 57.5721C46.0044 55.5683 45.7865 53.3635 46.2127 51.2366C46.6388 49.1096 47.6897 47.1562 49.2325 45.6233C50.7754 44.0903 52.7407 43.0469 54.8801 42.6248C57.0194 42.2028 59.2365 42.4211 61.251 43.2522C63.2656 44.0833 64.9869 45.4899 66.1974 47.2939C67.4078 49.098 68.053 51.2185 68.0513 53.3872C68.0509 54.8265 67.7654 56.2515 67.2111 57.581C66.6567 58.9105 65.8445 60.1184 64.8206 61.1356C63.7968 62.1529 62.5814 62.9597 61.2439 63.5098C59.9065 64.06 58.4731 64.3428 57.0257 64.342Z" fill="#F29F05"/>
<path d="M34.393 92.0972L14.2369 100.943L34.3814 110.31V122.004L2.52563 107.019V94.9366L34.3843 79.8536L34.393 92.0972Z" fill="#034AA6"/>
<path d="M111.514 92.0972L91.3609 100.943L111.506 110.31V122.004L79.6613 107.019V94.9366L111.508 79.8536L111.514 92.0972Z" fill="#034AA6"/>
<path d="M208.959 123.247L197.722 91.4787L185.317 123.233H173.568L191.598 79.8536H203.734L221.281 123.241L208.959 123.247Z" fill="#C90438"/>
<path d="M57.0256 79.8536C52.832 79.8542 48.7327 81.0913 45.2461 83.4085C41.7596 85.7257 39.0423 89.0189 37.438 92.8717C35.8337 96.7245 35.4144 100.964 36.2331 105.054C37.0518 109.143 39.0717 112.9 42.0375 115.848C45.0032 118.796 48.7816 120.804 52.8948 121.617C57.008 122.43 61.2712 122.012 65.1454 120.415C69.0196 118.819 72.3308 116.116 74.6602 112.649C76.9896 109.181 78.2326 105.105 78.232 100.935V100.914C78.2266 95.326 75.9898 89.9682 72.0133 86.0189C68.0368 82.0697 62.6459 79.8521 57.0256 79.8536ZM57.0256 111.895C54.8457 111.895 52.7147 111.253 50.902 110.049C49.0892 108.845 47.676 107.134 46.841 105.131C46.006 103.129 45.7867 100.925 46.2107 98.7992C46.6347 96.673 47.6831 94.7195 49.2233 93.1856C50.7635 91.6516 52.7264 90.6061 54.864 90.1811C57.0016 89.7562 59.218 89.9708 61.2329 90.798C63.2479 91.6251 64.971 93.0276 66.1846 94.8283C67.3982 96.6289 68.0478 98.7469 68.0512 100.914C68.0535 102.356 67.77 103.783 67.2169 105.115C66.6639 106.447 65.8521 107.658 64.828 108.678C63.804 109.698 62.5878 110.507 61.249 111.059C59.9101 111.611 58.475 111.895 57.0256 111.895Z" fill="#F29F05"/>
<path d="M114.607 32.2976H152.269V42.0326H114.607V32.2976Z" fill="#F29F05"/>
<path d="M114.607 48.5197H152.269V58.2548H114.607V48.5197Z" fill="#F29F05"/>
<path d="M114.607 64.7419H152.269V74.4769H114.607V64.7419Z" fill="#F29F05"/>
<path d="M125.826 100.938L145.974 110.313V122.004L123.914 111.625V122.013H114.127V79.8594H123.914V90.3078L145.974 79.8594L145.988 92.0943L125.826 100.938Z" fill="#0BA067"/>
<path d="M148.592 79.8536H180.859V89.5886H148.592V79.8536Z" fill="#034AA6"/>
<path d="M169.622 81.3236V123.491H159.832V81.3236H169.622Z" fill="#034AA6"/>
<path d="M232.252 79.8536V123.491H222.461V79.8536H232.252Z" fill="#F29F05"/>
<path d="M298.474 89.5915H278.723L298.474 113.756V123.497H266.193V113.748H285.907L266.193 89.6145V79.8536H298.474V89.5915Z" fill="#034AA6"/>
<path d="M263.835 113.748V123.489H236.744V79.8594H246.532V113.748H263.835Z" fill="#0BA067"/>
<path d="M209.303 57.0293C210.276 56.5287 210.851 56.4913 211.019 56.9228C211.187 57.3543 210.86 57.8693 209.992 58.482C208.316 59.4437 206.551 60.2423 204.721 60.8669C202.576 61.634 200.657 61.868 198.964 61.5688C197.27 61.2696 196.386 59.9175 196.311 57.5126V57.245C196.348 56.7445 196.311 56.4827 196.206 56.4654C196.102 56.4481 195.79 56.5977 195.284 56.9228C189.69 60.5418 185.588 62.8001 182.976 63.6976C180.365 64.5952 178.822 64.6307 178.347 63.8041C177.769 62.6649 178.489 60.8813 180.509 58.4533C182.528 56.0253 185.132 53.7238 188.32 51.549C191.508 49.3626 194.561 48.046 197.479 47.5992C200.398 47.1523 202.453 48.303 203.645 51.0513C203.7 51.2132 203.715 51.3862 203.686 51.5549C203.658 51.7236 203.588 51.8827 203.483 52.0179C203.268 52.306 202.962 52.5146 202.615 52.6105C202.408 52.6602 202.193 52.6669 201.983 52.6303C201.774 52.5937 201.574 52.5145 201.397 52.3976C200.994 52.195 200.664 51.8747 200.451 51.4799C200.45 51.4055 200.469 51.3322 200.506 51.2671L200.613 51.0513C200.647 50.9794 200.685 50.9103 200.723 50.8384C200.74 50.805 200.748 50.768 200.748 50.7305C200.748 50.6931 200.74 50.6561 200.723 50.6227C199.82 49.4029 198.269 49.2236 196.07 50.0847C193.585 51.1111 191.249 52.4658 189.127 54.1122C186.949 55.7084 184.872 57.4378 182.91 59.2904C181.214 60.9244 180.421 61.9198 180.529 62.2765C180.673 62.6332 182.097 62.0416 184.799 60.5015C187.501 58.9615 191.937 56.0761 198.107 51.8453C198.408 51.6698 198.761 51.6037 199.105 51.6583C199.279 51.6873 199.444 51.7539 199.589 51.8533C199.734 51.9527 199.855 52.0826 199.944 52.2337C200.068 52.4243 200.138 52.6442 200.147 52.8707C200.157 53.0971 200.106 53.3221 199.999 53.5225C198.626 56.4625 198.473 58.273 199.539 58.9538C200.606 59.6347 202.133 59.697 204.122 59.1408C205.928 58.6471 207.668 57.9381 209.303 57.0293Z" fill="#EA1154"/>
<path d="M204.747 64.6642C205.697 62.4654 206.793 60.3319 208.028 58.2778C209.486 55.7654 210.9 53.3633 212.272 51.0714C213.043 49.8555 213.692 48.8007 214.219 47.907C214.011 47.6468 213.897 47.3246 213.895 46.9922C213.891 46.6743 214.006 46.3664 214.219 46.1291C215.156 45.1242 215.841 44.568 216.273 44.4606L216.38 44.4059C216.66 44.3002 216.968 44.3002 217.248 44.4059C217.493 44.4748 217.716 44.6052 217.895 44.7846C218.074 44.964 218.204 45.1863 218.272 45.4301V45.6976C218.269 46.0386 218.176 46.3729 218.003 46.6671C216.67 48.8189 215.183 51.2651 213.542 54.0057C211.901 56.7464 210.443 59.2252 209.17 61.4422C210.038 60.6156 211.437 59.4237 213.365 57.8664C215.294 56.3091 217.223 54.8573 219.152 53.5109C221.08 52.1684 222.463 51.4656 223.3 51.4023C224.593 51.4368 225.325 51.946 225.513 52.9327C225.696 54.028 225.696 55.1457 225.513 56.241C225.408 57.0345 225.39 57.837 225.459 58.6345C225.458 58.898 225.562 59.151 225.749 59.3381C225.935 59.5253 226.189 59.6312 226.454 59.6327H226.569C227.237 59.6327 228.382 59.0948 230.004 58.0189C230.475 57.7312 230.805 57.6621 231.007 57.806C231.109 57.8935 231.182 58.0098 231.215 58.1393C231.249 58.2688 231.242 58.4054 231.196 58.5309C231.158 58.703 231.086 58.8657 230.984 59.0091C230.881 59.1525 230.751 59.2737 230.6 59.3652C227.355 61.4077 225.211 61.7913 224.165 60.5159C223.12 59.2405 222.848 57.0561 223.349 53.9626C222.578 54.0374 221.443 54.6741 219.944 55.8728C218.446 57.0714 216.806 58.46 215.026 60.0384C213.483 61.4058 212.006 62.661 210.594 63.8041C209.489 64.7445 208.293 65.5733 207.024 66.2781C206.302 66.5984 205.689 66.5984 205.184 66.2781C204.678 65.9578 204.533 65.4199 204.747 64.6642Z" fill="#EA1154"/>
<path d="M245.184 56.4654C242.441 58.9203 239.61 61.2505 236.69 63.456C233.769 65.6615 231.201 67.2035 228.985 68.0818C226.771 68.9583 225.34 68.662 224.692 67.1929C224.306 65.8658 225.001 63.7513 226.778 60.8496C228.822 57.6059 231.218 54.5942 233.921 51.8683C236.713 48.9407 239.897 46.4076 243.381 44.3398C246.718 42.4066 249.736 41.7239 252.437 42.2915C252.954 42.4173 253.444 42.6356 253.883 42.9359C254.044 43.0348 254.216 43.1158 254.395 43.1776C254.494 43.2037 254.597 43.2076 254.697 43.1892C254.797 43.1708 254.891 43.1305 254.974 43.0711C255.291 42.8643 255.582 42.621 255.842 42.3462C257.073 41.2366 258.232 40.051 259.313 38.7962C260.372 37.4911 261.329 36.1072 262.175 34.6566C265.241 29.534 267.675 25.6081 269.477 22.879C271.983 19.0463 274.789 15.4152 277.867 12.0192C281.003 8.54022 283.743 5.85523 286.086 3.96422C286.767 3.40933 287.555 2.99822 288.401 2.75598C289.186 2.49162 290.03 2.45372 290.837 2.64666C291.556 2.83844 291.97 3.38503 292.078 4.28642C291.937 5.42563 290.748 7.64842 288.511 10.9548C285.102 15.9069 281.36 20.6241 277.311 25.074C273.329 29.4391 269.552 33.2479 265.982 36.5006C264.76 37.646 263.618 38.8724 262.562 40.1713C261.54 41.5374 260.601 42.963 259.75 44.4405C256.072 50.5009 252.408 56.4702 248.757 62.3484C245.106 68.2266 242.042 73.1277 239.565 77.0516C237.095 80.9756 235.788 83.0277 235.645 83.2079C235.553 83.3794 235.426 83.5303 235.273 83.651C235.12 83.7718 234.943 83.8599 234.754 83.9099C234.62 83.9561 234.473 83.9546 234.34 83.9059C234.207 83.8571 234.094 83.764 234.022 83.6423C233.877 83.3892 233.97 82.9749 234.291 82.4025C236.347 78.8544 238.908 74.4088 241.972 69.0657C246.514 61.145 250.246 54.7115 253.166 49.7654C253.924 48.5802 254.213 48.0422 254.034 48.1515C253.461 48.6173 252.922 49.122 252.419 49.6618C252.272 49.8431 252.11 50.0214 251.933 50.1998C250.172 51.9239 247.922 54.0125 245.184 56.4654ZM243.292 47.5474C239.864 49.9557 236.699 52.7121 233.846 55.7721C230.906 58.9116 228.842 61.5199 227.651 63.597C227.232 64.2741 226.914 65.0088 226.708 65.7776C226.616 66.2609 226.998 66.2695 227.866 65.8034C230.46 64.367 233.99 61.7951 238.457 58.0879C242.924 54.3807 247.568 50.2487 252.387 45.6919C252.743 45.3726 252.908 45.1165 252.873 44.9123C252.839 44.708 252.564 44.5642 252.06 44.4549C249.567 44.1653 246.644 45.1932 243.292 47.5388V47.5474ZM286.286 9.66024C287.113 8.40981 287.595 7.5554 287.732 7.09704C287.874 6.65113 287.793 6.47277 287.486 6.55908C287.016 6.74245 286.578 6.99773 286.187 7.31567C285.609 7.72705 285.062 8.1787 284.472 8.68214C283.882 9.18558 283.427 9.61709 283.066 9.97669C281.162 11.9808 279.067 14.4079 276.779 17.2578C274.492 20.1077 272.557 22.7371 270.976 25.1459C270.162 26.383 269.422 27.6663 268.759 28.9893C268.47 29.651 268.505 29.8667 268.866 29.6337C269.481 29.1766 270.052 28.6633 270.57 28.1004C271.342 27.316 272.18 26.4376 273.085 25.4653C273.663 24.8189 274.236 24.21 274.803 23.6385C279.01 19.3 282.85 14.6248 286.286 9.66024Z" fill="#EA1154"/>
</g>
<defs>
<clipPath id="clip0_4_82">
<rect width="301" height="126" fill="white"/>
</clipPath>
</defs>
</svg>
