<svg width="158" height="97" viewBox="0 0 158 97" fill="none" xmlns="http://www.w3.org/2000/svg">
<path d="M157.701 83.4643V13.6927C150.236 13.6927 144.183 7.63999 144.183 0.174429C144.183 0.1221 144.183 0.0523287 144.183 0H13.6927C13.6927 0.0523287 13.6927 0.1221 13.6927 0.174429C13.6927 7.63999 7.63999 13.6927 0.174429 13.6927C0.1221 13.6927 0.0523287 13.6927 0 13.6927V83.4818C0.0523287 83.4818 0.1221 83.4818 0.174429 83.4818C7.63999 83.4818 13.6927 89.5344 13.6927 97H144.166C144.183 89.517 150.236 83.4643 157.701 83.4643Z" fill="url(#paint0_linear_46_1378)"/>
<path d="M20.7745 20.0244H16.4138V28.9203H20.7745V20.0244Z" fill="white"/>
<path d="M20.7745 35.9846H16.4138V44.8805H20.7745V35.9846Z" fill="white"/>
<path d="M20.7745 52.0322H16.4138V60.9281H20.7745V52.0322Z" fill="white"/>
<path d="M20.7745 68.0796H16.4138V76.9755H20.7745V68.0796Z" fill="white"/>
<path d="M141.305 20.0244H136.944V28.9203H141.305V20.0244Z" fill="white"/>
<path d="M141.305 35.9846H136.944V44.8805H141.305V35.9846Z" fill="white"/>
<path d="M141.305 52.0322H136.944V60.9281H141.305V52.0322Z" fill="white"/>
<path d="M141.305 68.0796H136.944V76.9755H141.305V68.0796Z" fill="white"/>
<path d="M78.8594 90.8772C102.269 90.8772 121.246 71.9003 121.246 48.491C121.246 25.0817 102.269 6.10474 78.8594 6.10474C55.4501 6.10474 36.4731 25.0817 36.4731 48.491C36.4731 71.9003 55.4501 90.8772 78.8594 90.8772Z" fill="#034AA6"/>
<path d="M78.8593 87.04C100.149 87.04 117.408 69.7811 117.408 48.4912C117.408 27.2013 100.149 9.94238 78.8593 9.94238C57.5694 9.94238 40.3105 27.2013 40.3105 48.4912C40.3105 69.7811 57.5694 87.04 78.8593 87.04Z" fill="#EA1154"/>
<path d="M58.4163 46.9912C56.6371 44.9329 55.73 42.2293 55.73 38.8977C55.73 35.5661 56.6197 32.8625 58.4163 30.8042C60.1955 28.746 62.5502 27.7168 65.4632 27.7168C68.3762 27.7168 70.731 28.7285 72.545 30.7693C74.3416 32.8101 75.2487 35.5138 75.2487 38.8977C75.2487 42.2816 74.3416 44.9853 72.545 47.0261C70.7484 49.0669 68.3762 50.0786 65.4632 50.0786C62.5502 50.0786 60.2129 49.0495 58.4163 46.9912ZM69.1611 44.1306C70.0332 42.8921 70.4693 41.1479 70.4693 38.8977C70.4693 36.6476 70.0332 34.9033 69.1611 33.6648C68.2889 32.4264 67.0505 31.7984 65.4632 31.7984C63.9457 31.7984 62.7421 32.4264 61.8176 33.6823C60.9106 34.9382 60.4571 36.6825 60.4571 38.8977C60.4571 41.113 60.9106 42.8398 61.8176 44.1131C62.7247 45.369 63.9457 45.9969 65.4632 45.9969C67.0505 45.9969 68.2889 45.369 69.1611 44.1306ZM91.1566 28.1179C93.0579 28.1179 94.1742 30.246 93.1102 31.7984L68.4982 67.8355C68.0622 68.4809 67.3296 68.8646 66.5446 68.8646C64.6434 68.8646 63.527 66.7365 64.591 65.1841L89.203 29.1471C89.6565 28.5018 90.3891 28.1179 91.1566 28.1179ZM85.1388 66.1959C83.3596 64.1376 82.4526 61.434 82.4526 58.1024C82.4526 54.7708 83.3422 52.0671 85.1388 50.0088C86.918 47.9505 89.2727 46.9215 92.1857 46.9215C95.0987 46.9215 97.4535 47.9505 99.2675 50.0088C101.064 52.0671 101.971 54.7708 101.971 58.1024C101.971 61.434 101.064 64.1376 99.2675 66.1959C97.4709 68.2541 95.0987 69.2832 92.1857 69.2832C89.2727 69.2832 86.9354 68.2541 85.1388 66.1959ZM95.8487 63.3178C96.7383 62.0619 97.1918 60.3176 97.1918 58.1024C97.1918 55.8871 96.7383 54.1602 95.8487 52.8869C94.9591 51.631 93.7381 51.0031 92.1857 51.0031C90.6333 51.0031 89.4123 51.6311 88.5227 52.8695C87.6331 54.1079 87.1796 55.8522 87.1796 58.1024C87.1796 60.3525 87.6331 62.0968 88.5227 63.3352C89.4123 64.5737 90.6333 65.2016 92.1857 65.2016C93.7381 65.2016 94.9591 64.5737 95.8487 63.3178Z" fill="white"/>
<defs>
<linearGradient id="paint0_linear_46_1378" x1="0.0135706" y1="48.4999" x2="157.697" y2="48.4999" gradientUnits="userSpaceOnUse">
<stop stop-color="#06FF31"/>
<stop offset="1" stop-color="#0BA067"/>
</linearGradient>
</defs>
</svg>
